<?xml version="1.0" encoding="UTF-8" standalone="no"?>
<!-- Uploaded to: SVG Repo, www.svgrepo.com, Generator: SVG Repo Mixer Tools -->

<svg
   width="64"
   height="64"
   viewBox="0 0 1.92 1.92"
   version="1.1"
   id="svg2"
   sodipodi:docname="icon.svg"
   xml:space="preserve"
   inkscape:version="1.3.2 (091e20ef0f, 2023-11-25)"
   xmlns:inkscape="http://www.inkscape.org/namespaces/inkscape"
   xmlns:sodipodi="http://sodipodi.sourceforge.net/DTD/sodipodi-0.dtd"
   xmlns="http://www.w3.org/2000/svg"
   xmlns:svg="http://www.w3.org/2000/svg"><defs
     id="defs2" /><sodipodi:namedview
     id="namedview2"
     pagecolor="#ffffff"
     bordercolor="#111111"
     borderopacity="1"
     inkscape:showpageshadow="0"
     inkscape:pageopacity="0"
     inkscape:pagecheckerboard="1"
     inkscape:deskcolor="#d1d1d1"
     inkscape:zoom="8.15"
     inkscape:cx="20"
     inkscape:cy="30.981595"
     inkscape:window-width="1920"
     inkscape:window-height="1015"
     inkscape:window-x="0"
     inkscape:window-y="0"
     inkscape:window-maximized="1"
     inkscape:current-layer="svg2" /><path
     d="M 1.0792988,0.49300078 1.5090282,0.15880541 a 0.08700738,0.08700738 0 0 1 0.1148498,0.007134 l 0.2605871,0.26050012 a 0.08700738,0.08700738 0 0 1 0.00713,0.11493675 L 1.5574914,0.97101937 A 0.65299043,0.65299043 0 0 1 0.92381652,1.7794921 c -0.30469986,0 -0.69623311,-0.1306852 -0.91375157,-0.2611963 C 0.35635435,1.2572737 0.27517646,1.0997903 0.3145908,0.95274781 0.40664462,0.60906864 0.73588057,0.40834259 1.0792988,0.49300078 Z M 1.376255,0.65648767 c 0.00566,0.005482 0.011311,0.0111369 0.016792,0.0168795 L 1.4918008,0.77203351 1.707144,0.49517597 1.5552292,0.34326108 1.2783716,0.55860436 Z"
     id="path2"
     style="stroke-width:0.0870074;fill:#fc7f7f;fill-opacity:1" /></svg>
